# xmcd
#
# Track frame offsets:
#	150
#	16003
#	31251
#	47994
#	67918
#	85243
#	101527
#	116984
#	132412
#	153392
#	168189
#	186705
#	205266
#
# Disc length: 2903 seconds
#
# Revision: 7
# Processed by: cddbd v1.5.2PL0 Copyright (c) Steve Scherf et al.
# Submitted via: audiograbber 1.83.01
#
DISCID=af0b550d
DTITLE=Britney Spears - Oops! I Did It Again
DYEAR=2000
DGENRE=Pop
TTITLE0=Oops! I Dit It Again
TTITLE1=Stronger
TTITLE2=Don't Go Knockin' On My Door
TTITLE3=(I Can't Get No) Satisfaction
TTITLE4=Don't Let Me Be The Last To Know
TTITLE5=What U See (Is What U Get)
TTITLE6=Lucky
TTITLE7=One Kiss From You
TTITLE8=Where Are You Now
TTITLE9=Can't Make You Love Me
TTITLE10=When Your Eyes Say It
TTITLE11=Girl In The Mirror
TTITLE12=Dear Diary
EXTD=
EXTT0=
EXTT1=
EXTT2=
EXTT3=
EXTT4=
EXTT5=
EXTT6=
EXTT7=
EXTT8=
EXTT9=
EXTT10=
EXTT11=
EXTT12=
PLAYORDER=
